<?xml version="1.0" encoding="utf-8"?>
<!-- Generator: Adobe Illustrator 19.0.0, SVG Export Plug-In . SVG Version: 6.00 Build 0)  -->
<svg version="1.1" id="Layer_1" xmlns="http://www.w3.org/2000/svg" xmlns:xlink="http://www.w3.org/1999/xlink" x="0px" y="0px"
	 viewBox="0 0 512 512" style="enable-background:new 0 0 512 512;" xml:space="preserve">
<style type="text/css">
	.st0{fill:#4C4B4C;}
	.st1{fill:#F9F9F9;stroke:#FFFFFF;stroke-width:2;stroke-miterlimit:10;}
	.st2{fill:#FFFFFF;}
	.st3{font-family:'ArialMT';}
	.st4{font-size:60px;}
	.st5{fill:#8D5000;stroke:#010101;stroke-width:1.042;}
	.st6{font-size:135px;}
</style>
<path id="XMLID_8_" class="st0" d="M63.8,0h383.5v512H63.2V2C63.1,1.1,63.1,0.1,63.8,0L63.8,0z M95.2,36.2v374.1h320.7V34.1H95.8
	C95.1,34.2,95.1,35.2,95.2,36.2L95.2,36.2z"/>
<path id="XMLID_5_" class="st0" d="M95.8,34.1h320.1v376.1H95.2v-374C95.1,35.2,95.1,34.2,95.8,34.1L95.8,34.1z M96.5,37.5v371.4
	h318.2V35.5H97.1C96.3,35.6,96.4,36.6,96.5,37.5L96.5,37.5z"/>
<path id="XMLID_4_" class="st1" d="M97.1,35.5h317.5v373.4H96.5V37.5C96.4,36.6,96.3,35.6,97.1,35.5L97.1,35.5z"/>
<text id="XMLID_1_" transform="matrix(1 0 0 1 129.0874 481.6916)" class="st2 st3 st4">MISSING</text>
<path id="_x32_" class="st5" d="M255.4,106.3c-56.7,1.5-67.3,45-64.3,77.8c0.4,5.1,2.7,9.7,6.3,13.8c0.3-3.2,0.8-6.4,1.4-9.5
	c-0.3,2.8-0.4,5.6-0.4,8.4c0,26.3,10.4,49.6,26.2,63.3c-1.1,6.4-3.4,11.9-6.9,18.6l-59.2,13.2c-28.7,6.9-30.8,49.4-28.9,70.9
	c255.6-0.8-0.5,0.5,255.4-0.6c-0.9-23.5-4.1-65.3-33.3-71.8l-56.1-11.1c0-0.2,0-0.4,0-0.5l-3.4-19.8c15-13.8,24.9-36.5,24.9-62.1
	c0-0.3,0-0.5,0-0.8c0.3,1.3,0.5,2.6,0.7,3.7c3.2-4.5,2.5-12.2,3.4-18.3c4.5-31.5-12.5-74.3-60-75.2
	C259.2,106.3,257.2,106.3,255.4,106.3z"/>
<text id="XMLID_2_" transform="matrix(1 0 0 1 225.0449 290.2373)" class="st2 st3 st6">?</text>
</svg>
