<?xml version="1.0" encoding="utf-8"?>
<!-- Generator: Adobe Illustrator 19.0.0, SVG Export Plug-In . SVG Version: 6.00 Build 0)  -->
<svg version="1.1" id="Layer_1" xmlns="http://www.w3.org/2000/svg" xmlns:xlink="http://www.w3.org/1999/xlink" x="0px" y="0px"
	 viewBox="0 0 512 512" style="enable-background:new 0 0 512 512;" xml:space="preserve">
<style type="text/css">
	.st0{fill:#8D5000;stroke:#4B4B4B;stroke-width:21;}
	.st1{fill:#FFFFFF;}
	.st2{font-family:'ArialMT';}
	.st3{font-size:270px;}
</style>
<path id="_x32_" class="st0" d="M247.9,12.9c-107.7,2.9-128,85.6-122.3,147.7c0.9,9.7,5.1,18.4,11.9,26.2c0.7-6.1,1.5-12.2,2.8-18
	c-0.5,5.2-0.7,10.6-0.7,16.1c0,50.1,19.8,94.2,49.8,120.3c-2,12.3-6.5,22.7-13.1,35.3L63.8,365.6C9.2,378.7,5.1,459.3,8.8,500.2
	c485.6-1.4-1,0.9,485.4-1c-1.7-44.7-7.8-124.2-63.2-136.5l-106.5-21c0-0.4,0-0.8,0-1L318,303c28.6-26.3,47.3-69.4,47.3-118
	c0-0.5,0-0.9,0-1.5c0.5,2.5,1,4.8,1.3,6.9c6.1-8.6,4.7-23.2,6.4-34.7c8.5-59.8-23.8-141.1-114.1-142.8
	C255.1,12.8,251.4,12.8,247.9,12.9z"/>
<text id="XMLID_1_" transform="matrix(1 0 0 1 192.0694 375.9619)" class="st1 st2 st3">?</text>
</svg>
