<?xml version="1.0" encoding="utf-8"?>
<!-- Generator: Adobe Illustrator 19.0.0, SVG Export Plug-In . SVG Version: 6.00 Build 0)  -->
<svg version="1.1" id="Layer_1" xmlns="http://www.w3.org/2000/svg" xmlns:xlink="http://www.w3.org/1999/xlink" x="0px" y="0px"
	 viewBox="0 0 512 512" style="enable-background:new 0 0 512 512;" xml:space="preserve">
<style type="text/css">
	.st0{fill:#8D5000;stroke:#333332;stroke-width:1.042;}
	.st1{fill:#4C4B4C;}
</style>
<path id="_x32_" class="st0" d="M209.2,105.9c-42.3,1.1-50.2,32.3-47.9,55.8c0.4,3.6,2,7,4.7,9.9c0.2-2.3,0.6-4.6,1.1-6.8
	c-0.2,2-0.3,4-0.3,6.1c0,18.9,7.7,35.6,19.5,45.4c-0.8,4.6-2.5,8.6-5.2,13.4l-44.1,9.5c-21.4,4.9-23,35.4-21.5,50.8
	c190.5-0.5-0.4,0.3,190.4-0.4c-0.7-16.9-3-46.9-24.8-51.5l-41.8-7.9c0-0.1,0-0.3,0-0.4l-2.6-14.2c11.2-9.9,18.6-26.2,18.6-44.6
	c0-0.2,0-0.4,0-0.6c0.2,0.9,0.4,1.8,0.5,2.6c2.4-3.2,1.8-8.8,2.5-13.1c3.4-22.6-9.4-53.2-44.8-53.9
	C212,105.9,210.6,105.9,209.2,105.9z"/>
<g id="layer1" transform="translate(-290.27 -334.66)">
	<path id="path3058-6" class="st1" d="M496.4,334.7c-52.8,0-105.7,20.1-145.9,60.2c-80.3,80.3-80.4,211.5-0.1,291.8
		c70.4,70.4,179.8,79.1,259.9,26.1l121.8,121.8c16.1,16.1,41.9,16.1,58,0s16.1-41.9,0-58L668.5,654.8c53-80,44.3-189.5-26.2-259.9
		C602.1,354.7,549.3,334.7,496.4,334.7L496.4,334.7z M496.4,389c38.7,0,77.5,14.9,107.2,44.6c59.4,59.4,59.5,155,0.1,214.5
		c-59.4,59.4-155,59.4-214.5,0c-59.4-59.4-59.4-155,0-214.5C418.9,403.9,457.6,389,496.4,389L496.4,389z M387,587.5
		c-3.3,0.1-5.8,2.9-5.7,6.1c0,0.8,0.2,1.6,0.6,2.3c20.5,43,64.5,72.7,115.2,72.7c11,0,21.7-1.4,31.9-4.1c3.1-0.9,5-4.1,4.1-7.2
		c-0.6-2.1-2.2-3.7-4.3-4.2c-51-11.4-97.8-33.8-137.9-64.5C389.8,587.8,388.4,587.4,387,587.5L387,587.5z"/>
</g>
</svg>
